<svg width="105" height="105" viewBox="0 0 105 105" fill="none" xmlns="http://www.w3.org/2000/svg">
<path d="M6.24402 74.2046C6.5795 72.2868 6.80843 70.3425 7.26639 68.4567C7.58955 67.298 7.60325 66.0748 7.30611 64.9092C7.00897 63.7436 6.41141 62.6763 5.57305 61.8139C4.30785 60.4468 3.12023 59.0098 2.01585 57.5097C-0.44967 54.0525 -0.896948 50.7391 2.04783 47.7826C6.84042 42.9883 7.99065 37.8424 6.38247 31.4074C5.42928 27.6039 7.13328 24.4823 10.9407 23.4435C17.645 21.6483 21.3832 17.7596 23.2364 11.1328C24.3014 7.24406 27.4645 5.59269 31.4743 6.6208C37.8645 8.25087 42.8434 7.00968 47.5401 2.27929C50.5595 -0.762428 54.3137 -0.757101 57.3862 2.27929C62.1043 6.94043 67.0833 8.28815 73.4787 6.61547C77.4353 5.5767 80.5292 7.27603 81.6581 11.2233C83.4952 17.6158 87.1216 21.3873 93.6022 23.2091C98.0008 24.4503 99.6782 27.7903 98.3948 32.5474C96.7973 38.3645 98.0966 42.6687 102.266 46.9303C105.903 50.6272 105.909 54.5266 102.298 58.3301C98.2405 62.5917 96.8186 66.8799 98.3948 72.713C99.7421 77.6831 97.7079 80.4212 92.8461 82.4508C92.6941 82.543 92.5313 82.6163 92.3615 82.6692C86.85 83.6866 84.0544 87.1172 82.4994 92.4389C80.8167 98.1814 77.5897 99.6623 71.6415 98.5703C70.5765 98.3785 69.5328 98.169 68.5104 97.9417C65.9224 97.3717 63.6273 97.7926 61.5877 99.673C60.169 101.017 58.6603 102.263 57.0721 103.402C54.0634 105.533 50.9429 105.533 47.9235 103.402C46.4609 102.397 45.0809 101.276 43.7966 100.051C41.4642 97.75 38.7644 97.2652 35.7078 98.011C35.2764 98.1122 34.8451 98.2081 34.4084 98.2826C26.9107 99.5931 24.2907 98.2826 22.0489 91.0539C20.7176 86.7923 18.4438 84.0915 14.0612 83.1966C13.0357 82.9143 12.0446 82.5195 11.1058 82.0193C7.77232 80.5064 5.98309 78.024 6.24402 74.2046ZM95.0454 31.125C95.3702 28.8238 94.3425 27.3482 92.2816 26.5119C90.9836 25.9432 89.6537 25.4505 88.2985 25.0363C83.868 23.8111 81.3279 20.9025 79.9434 16.5717C77.6749 9.46542 77.1423 9.19907 69.8257 10.7119C65.7466 11.543 62.2215 10.9517 58.9412 8.11238C52.5085 2.535 52.3594 2.54565 45.9479 8.11238C44.6046 9.34763 42.9849 10.2428 41.2246 10.7229C39.4642 11.203 37.6144 11.2541 35.8302 10.8718C34.7652 10.68 33.7375 10.4882 32.6884 10.3391C28.0982 9.61992 27.2408 10.1313 25.5741 14.5527C25.2919 15.2985 24.9723 16.0336 24.7647 16.8007C23.6038 21.1263 20.7975 23.6459 16.5641 25.0629C9.05035 27.5773 8.98645 27.8223 10.5094 35.5305C11.3188 39.6429 10.5094 43.1374 7.66045 46.355C2.29274 52.4011 2.28745 52.7474 7.69243 58.9427C9.03026 60.37 9.98828 62.1105 10.4786 64.0046C10.9689 65.8987 10.9759 67.8857 10.4988 69.7831C10.3284 70.5609 10.2165 71.3546 10.0994 72.143C9.34854 77.0811 9.73194 78.2371 14.5458 79.5476C20.4727 81.1457 23.8861 84.6508 25.5422 90.5212C26.9214 95.422 28.2686 96.2211 33.173 94.9373C38.9188 93.4351 43.4664 94.7082 47.7212 98.7994C51.5393 102.48 53.2007 102.491 57.0028 98.7994C61.2629 94.6603 65.8318 93.4723 71.5563 94.9373C76.4661 96.1891 77.9465 95.3901 79.2458 90.5745C80.8433 84.6348 84.3206 81.2202 90.2155 79.5795C95.0613 78.2318 95.5832 76.8521 94.7046 71.9033C94.5661 71.1202 94.4649 70.3052 94.2679 69.5541C93.1709 65.3724 94.5022 61.9684 97.3138 58.8255C102.426 53.1149 102.357 52.5609 97.3138 46.6213C96.973 46.2165 96.6482 45.7956 96.3074 45.3855C95.3001 44.2541 94.5751 42.9 94.1919 41.4342C93.8087 39.9684 93.7782 38.4327 94.1028 36.9528C94.5289 34.9978 94.7525 33.0534 95.0454 31.125Z" fill="#fe8d00"/>
<path d="M52.324 16.0014C57.1349 15.9596 61.9062 16.8766 66.3614 18.6992C70.8166 20.5218 74.8673 23.2137 78.2786 26.6191C81.6899 30.0245 84.3941 34.0756 86.2344 38.5376C88.0748 42.9997 89.0148 47.784 88.9998 52.6133C88.9849 57.4426 88.0154 62.221 86.1474 66.6715C84.2795 71.122 81.5504 75.1561 78.1181 78.5402C74.6857 81.9242 70.6185 84.5909 66.1521 86.3857C61.6856 88.1805 56.9088 89.0677 52.0984 88.996C32.1496 88.9366 15.925 72.3967 16.0003 52.1993C16.0158 47.4278 16.9678 42.7062 18.8019 38.3043C20.6361 33.9023 23.3165 29.9064 26.6898 26.5447C30.0632 23.1831 34.0633 20.5217 38.4618 18.7126C42.8602 16.9035 47.5707 15.9822 52.324 16.0014ZM19.7675 52.3449C19.726 58.813 21.5985 65.1478 25.1476 70.5465C28.6966 75.9451 33.7625 80.1645 39.7031 82.6699C45.6438 85.1753 52.1917 85.8538 58.5169 84.6195C64.8421 83.3851 70.6599 80.2936 75.2328 75.7365C79.8057 71.1795 82.9279 65.3623 84.2036 59.0221C85.4793 52.6819 84.851 46.1043 82.3985 40.1229C79.946 34.1416 75.7796 29.0258 70.4275 25.4239C65.0754 21.8221 58.7784 19.8964 52.3348 19.8909C43.7387 19.8921 35.4915 23.3042 29.391 29.3835C23.2905 35.4628 19.8314 43.7163 19.7675 52.3449Z" fill="#fe8d00"/>
<path d="M51.8673 68.9981C46.0452 69.0731 40.4202 66.9436 36.1758 63.0575C35.397 62.3516 34.7059 60.3839 35.1283 59.8064C36.2855 58.1649 37.6018 59.384 38.7591 60.3411C46.9092 67.0197 57.2202 66.9929 65.5294 60.2877C66.5879 59.4321 67.8385 58.1488 68.8751 59.8118C69.2919 60.4748 68.5953 62.3516 67.822 63.0681C63.3795 67.164 57.9717 69.0248 51.8673 68.9981Z" fill="#fe8d00"/>
<path d="M66.0071 41C69.632 41 72.9679 43.8996 73 47.364C73 48.214 72.1701 49.0801 71.7256 49.9408C71.0028 49.3437 69.8837 48.8649 69.6481 48.1279C69.0538 46.2505 68.2774 44.7818 66.1195 44.728C63.8225 44.6742 62.9069 46.1482 62.3714 48.1656C62.1626 48.8972 61.156 49.3975 60.5135 50C59.978 49.2038 59.0303 48.4238 59.0035 47.6169C58.875 44.0879 62.259 41 66.0071 41Z" fill="#fe8d00"/>
<path d="M38.7363 43.437C37.2504 45.4597 36.3884 46.7292 35.4207 47.9074C34.7444 48.6455 34.0276 49.3441 33.2738 50C32.8243 48.9886 31.8936 47.9181 32.01 46.9767C32.4172 43.5822 35.4418 41.0592 38.7627 41C40.3998 40.9947 41.9903 41.5548 43.2737 42.5888C44.5571 43.6227 45.4575 45.0692 45.8275 46.6916C46.1236 48.0687 46.2294 49.6718 44.5161 49.8655C43.8657 49.9408 43.0196 48.4668 42.311 47.6599C41.3063 46.5194 40.3439 45.3628 38.7363 43.437Z" fill="#fe8d00"/>
</svg>
